<svg version="1.1" preserveAspectRatio="none" xmlns="http://www.w3.org/2000/svg" width="500" height="500" viewBox="0 0 500 500"><rect width="100%" height="100%" fill="#F1F1F1" fill-opacity="1"/><svg viewBox="105.1663 200.1693 372.337 268.4912" width="333" height="240.1253960793582" x="83.5px" y="129.9373px" xmlns="http://www.w3.org/2000/svg" xmlns:xlink="http://www.w3.org/1999/xlink" preserveAspectRatio="none"><defs></defs><style>.companyName {fill:#3B3B6B;fill-opacity:1;}.icon1 {fill:#D24848;fill-opacity:1;}.icon2 {fill:#CCAF60;fill-opacity:1;}.icon3 {fill:#797468;fill-opacity:1;}.icon3-str {stroke:#797468;stroke-opacity:1;}.text {fill:#D24848;fill-opacity:1;}</style><g opacity="1" transform="rotate(0 106.7719 448.6605)">
<svg width="369.1258" height="20" x="106.7719" y="448.6605" version="1.1" preserveAspectRatio="none" viewBox="1.64 -30.28 706.44 38.28">
  <g transform="matrix(1 0 0 1 0 0)" class="text"><path id="id-6izo4zJp30" d="M12.36 0.32Q9.20 0.32 6.26-0.66Q3.32-1.64 1.64-3.20L1.64-3.20L3.12-6.32Q4.72-4.88 7.22-3.98Q9.72-3.08 12.36-3.08L12.36-3.08Q15.84-3.08 17.56-4.26Q19.28-5.44 19.28-7.40L19.28-7.40Q19.28-8.84 18.34-9.74Q17.40-10.64 16.02-11.12Q14.64-11.60 12.12-12.20L12.12-12.20Q8.96-12.96 7.02-13.72Q5.08-14.48 3.70-16.06Q2.32-17.64 2.32-20.32L2.32-20.32Q2.32-22.56 3.50-24.36Q4.68-26.16 7.08-27.24Q9.48-28.32 13.04-28.32L13.04-28.32Q15.52-28.32 17.92-27.68Q20.32-27.04 22.04-25.84L22.04-25.84L20.72-22.64Q18.96-23.76 16.96-24.34Q14.96-24.92 13.04-24.92L13.04-24.92Q9.64-24.92 7.94-23.68Q6.24-22.44 6.24-20.48L6.24-20.48Q6.24-19.04 7.20-18.14Q8.16-17.24 9.58-16.74Q11-16.24 13.44-15.68L13.44-15.68Q16.60-14.92 18.52-14.16Q20.44-13.40 21.82-11.84Q23.20-10.28 23.20-7.64L23.20-7.64Q23.20-5.44 22-3.62Q20.80-1.80 18.36-0.74Q15.92 0.32 12.36 0.32L12.36 0.32Z M43.72 0.24Q40.48 0.24 37.94-1.16Q35.40-2.56 33.96-5.02Q32.52-7.48 32.52-10.60L32.52-10.60Q32.52-13.72 33.96-16.18Q35.40-18.64 37.94-20.02Q40.48-21.40 43.72-21.40L43.72-21.40Q46.60-21.40 48.86-20.24Q51.12-19.08 52.36-16.88L52.36-16.88L49.44-15Q48.44-16.52 46.96-17.28Q45.48-18.04 43.68-18.04L43.68-18.04Q41.60-18.04 39.94-17.12Q38.28-16.20 37.34-14.50Q36.40-12.80 36.40-10.60L36.40-10.60Q36.40-8.36 37.34-6.66Q38.28-4.96 39.94-4.04Q41.60-3.12 43.68-3.12L43.68-3.12Q45.48-3.12 46.96-3.88Q48.44-4.64 49.44-6.16L49.44-6.16L52.36-4.32Q51.12-2.12 48.86-0.94Q46.60 0.24 43.72 0.24L43.72 0.24Z M71.04-21.40Q75.44-21.40 77.78-19.24Q80.12-17.08 80.12-12.80L80.12-12.80L80.12 0L76.48 0L76.48-2.80Q75.52-1.32 73.74-0.54Q71.96 0.24 69.52 0.24L69.52 0.24Q65.96 0.24 63.82-1.48Q61.68-3.20 61.68-6L61.68-6Q61.68-8.80 63.72-10.50Q65.76-12.20 70.20-12.20L70.20-12.20L76.28-12.20L76.28-12.96Q76.28-15.44 74.84-16.76Q73.40-18.08 70.60-18.08L70.60-18.08Q68.72-18.08 66.92-17.46Q65.12-16.84 63.88-15.80L63.88-15.80L62.28-18.68Q63.92-20 66.20-20.70Q68.48-21.40 71.04-21.40L71.04-21.40ZM70.16-2.72Q72.36-2.72 73.96-3.70Q75.56-4.68 76.28-6.48L76.28-6.48L76.28-9.44L70.36-9.44Q65.48-9.44 65.48-6.16L65.48-6.16Q65.48-4.56 66.72-3.64Q67.96-2.72 70.16-2.72L70.16-2.72Z M104.56-21.40Q108.60-21.40 110.98-19.06Q113.36-16.72 113.36-12.20L113.36-12.20L113.36 0L109.52 0L109.52-11.76Q109.52-14.84 108.04-16.40Q106.56-17.96 103.80-17.96L103.80-17.96Q100.68-17.96 98.88-16.14Q97.08-14.32 97.08-10.92L97.08-10.92L97.08 0L93.24 0L93.24-21.20L96.92-21.20L96.92-18Q98.08-19.64 100.06-20.52Q102.04-21.40 104.56-21.40L104.56-21.40Z M143.24 0L143.24-21.20L147.08-21.20L147.08 0L143.24 0ZM145.16-25.28Q144.04-25.28 143.30-26Q142.56-26.72 142.56-27.76L142.56-27.76Q142.56-28.80 143.30-29.54Q144.04-30.28 145.16-30.28L145.16-30.28Q146.28-30.28 147.02-29.58Q147.76-28.88 147.76-27.84L147.76-27.84Q147.76-26.76 147.02-26.02Q146.28-25.28 145.16-25.28L145.16-25.28Z M171.12-4L172.32-1.24Q171.48-0.52 170.24-0.14Q169 0.24 167.68 0.24L167.68 0.24Q164.48 0.24 162.72-1.48Q160.96-3.20 160.96-6.40L160.96-6.40L160.96-18.04L157.36-18.04L157.36-21.20L160.96-21.20L160.96-25.84L164.80-25.84L164.80-21.20L170.88-21.20L170.88-18.04L164.80-18.04L164.80-6.56Q164.80-4.84 165.66-3.92Q166.52-3 168.12-3L168.12-3Q169.88-3 171.12-4L171.12-4Z M203.40-17.64Q204.40-19.48 206.36-20.44Q208.32-21.40 211.12-21.40L211.12-21.40L211.12-17.68Q210.80-17.72 210.24-17.72L210.24-17.72Q207.12-17.72 205.34-15.86Q203.56-14 203.56-10.56L203.56-10.56L203.56 0L199.72 0L199.72-21.20L203.40-21.20L203.40-17.64Z M221.84 0L221.84-21.20L225.68-21.20L225.68 0L221.84 0ZM223.76-25.28Q222.64-25.28 221.90-26Q221.16-26.72 221.16-27.76L221.16-27.76Q221.16-28.80 221.90-29.54Q222.64-30.28 223.76-30.28L223.76-30.28Q224.88-30.28 225.62-29.58Q226.36-28.88 226.36-27.84L226.36-27.84Q226.36-26.76 225.62-26.02Q224.88-25.28 223.76-25.28L223.76-25.28Z M255.64-21.20L259.28-21.20L259.28-2.88Q259.28 2.68 256.52 5.34Q253.76 8 248.28 8L248.28 8Q245.28 8 242.56 7.18Q239.84 6.36 238.16 4.84L238.16 4.84L240.00 1.88Q241.48 3.16 243.66 3.90Q245.84 4.64 248.16 4.64L248.16 4.64Q251.88 4.64 253.66 2.88Q255.44 1.12 255.44-2.48L255.44-2.48L255.44-4.16Q254.08-2.52 252.10-1.70Q250.12-0.88 247.80-0.88L247.80-0.88Q244.76-0.88 242.30-2.18Q239.84-3.48 238.44-5.82Q237.04-8.16 237.04-11.16L237.04-11.16Q237.04-14.16 238.44-16.50Q239.84-18.84 242.30-20.12Q244.76-21.40 247.80-21.40L247.80-21.40Q250.20-21.40 252.26-20.52Q254.32-19.64 255.64-17.92L255.64-17.92L255.64-21.20ZM248.24-4.24Q250.32-4.24 251.98-5.12Q253.64-6 254.58-7.58Q255.52-9.16 255.52-11.16L255.52-11.16Q255.52-14.24 253.48-16.14Q251.44-18.04 248.24-18.04L248.24-18.04Q245-18.04 242.96-16.14Q240.92-14.24 240.92-11.16L240.92-11.16Q240.92-9.16 241.86-7.58Q242.80-6 244.46-5.12Q246.12-4.24 248.24-4.24L248.24-4.24Z M283.92-21.40Q287.96-21.40 290.34-19.06Q292.72-16.72 292.72-12.20L292.72-12.20L292.72 0L288.88 0L288.88-11.76Q288.88-14.84 287.40-16.40Q285.92-17.96 283.16-17.96L283.16-17.96Q280.04-17.96 278.24-16.14Q276.44-14.32 276.44-10.92L276.44-10.92L276.44 0L272.60 0L272.60-29.68L276.44-29.68L276.44-18.20Q277.64-19.72 279.58-20.56Q281.52-21.40 283.92-21.40L283.92-21.40Z M316.56-4L317.76-1.24Q316.92-0.52 315.68-0.14Q314.44 0.24 313.12 0.24L313.12 0.24Q309.92 0.24 308.16-1.48Q306.40-3.20 306.40-6.40L306.40-6.40L306.40-18.04L302.80-18.04L302.80-21.20L306.40-21.20L306.40-25.84L310.24-25.84L310.24-21.20L316.32-21.20L316.32-18.04L310.24-18.04L310.24-6.56Q310.24-4.84 311.10-3.92Q311.96-3 313.56-3L313.56-3Q315.32-3 316.56-4L316.56-4Z M355.88-4L357.08-1.24Q356.24-0.52 355-0.14Q353.76 0.24 352.44 0.24L352.44 0.24Q349.24 0.24 347.48-1.48Q345.72-3.20 345.72-6.40L345.72-6.40L345.72-18.04L342.12-18.04L342.12-21.20L345.72-21.20L345.72-25.84L349.56-25.84L349.56-21.20L355.64-21.20L355.64-18.04L349.56-18.04L349.56-6.56Q349.56-4.84 350.42-3.92Q351.28-3 352.88-3L352.88-3Q354.64-3 355.88-4L355.88-4Z M376.08 0.24Q372.92 0.24 370.40-1.16Q367.88-2.56 366.46-5.02Q365.04-7.48 365.04-10.60L365.04-10.60Q365.04-13.72 366.46-16.18Q367.88-18.64 370.40-20.02Q372.92-21.40 376.08-21.40L376.08-21.40Q379.24-21.40 381.74-20.02Q384.24-18.64 385.66-16.18Q387.08-13.72 387.08-10.60L387.08-10.60Q387.08-7.48 385.66-5.02Q384.24-2.56 381.74-1.16Q379.24 0.24 376.08 0.24L376.08 0.24ZM376.08-3.12Q378.12-3.12 379.74-4.06Q381.36-5 382.28-6.70Q383.20-8.40 383.20-10.60L383.20-10.60Q383.20-12.80 382.28-14.50Q381.36-16.20 379.74-17.12Q378.12-18.04 376.08-18.04L376.08-18.04Q374.04-18.04 372.42-17.12Q370.80-16.20 369.86-14.50Q368.92-12.80 368.92-10.60L368.92-10.60Q368.92-8.40 369.86-6.70Q370.80-5 372.42-4.06Q374.04-3.12 376.08-3.12L376.08-3.12Z M425.88-4L427.08-1.24Q426.24-0.52 425.00-0.14Q423.76 0.24 422.44 0.24L422.44 0.24Q419.24 0.24 417.48-1.48Q415.72-3.20 415.72-6.40L415.72-6.40L415.72-18.04L412.12-18.04L412.12-21.20L415.72-21.20L415.72-25.84L419.56-25.84L419.56-21.20L425.64-21.20L425.64-18.04L419.56-18.04L419.56-6.56Q419.56-4.84 420.42-3.92Q421.28-3 422.88-3L422.88-3Q424.64-3 425.88-4L425.88-4Z M441.40-17.64Q442.40-19.48 444.36-20.44Q446.32-21.40 449.12-21.40L449.12-21.40L449.12-17.68Q448.80-17.72 448.24-17.72L448.24-17.72Q445.12-17.72 443.34-15.86Q441.56-14 441.56-10.56L441.56-10.56L441.56 0L437.72 0L437.72-21.20L441.40-21.20L441.40-17.64Z M478.80-10.48Q478.80-10.04 478.72-9.32L478.72-9.32L461.52-9.32Q461.88-6.52 463.98-4.82Q466.08-3.12 469.20-3.12L469.20-3.12Q473.00-3.12 475.32-5.68L475.32-5.68L477.44-3.20Q476.00-1.52 473.86-0.64Q471.72 0.24 469.08 0.24L469.08 0.24Q465.72 0.24 463.12-1.14Q460.52-2.52 459.10-5Q457.68-7.48 457.68-10.60L457.68-10.60Q457.68-13.68 459.06-16.16Q460.44-18.64 462.86-20.02Q465.28-21.40 468.32-21.40L468.32-21.40Q471.36-21.40 473.74-20.02Q476.12-18.64 477.46-16.16Q478.80-13.68 478.80-10.48L478.80-10.48ZM468.32-18.16Q465.56-18.16 463.70-16.48Q461.84-14.80 461.52-12.08L461.52-12.08L475.12-12.08Q474.80-14.76 472.94-16.46Q471.08-18.16 468.32-18.16L468.32-18.16Z M497.24-21.40Q501.64-21.40 503.98-19.24Q506.32-17.08 506.32-12.80L506.32-12.80L506.32 0L502.68 0L502.68-2.80Q501.72-1.32 499.94-0.54Q498.16 0.24 495.72 0.24L495.72 0.24Q492.16 0.24 490.02-1.48Q487.88-3.20 487.88-6L487.88-6Q487.88-8.80 489.92-10.50Q491.96-12.20 496.40-12.20L496.40-12.20L502.48-12.20L502.48-12.96Q502.48-15.44 501.04-16.76Q499.60-18.08 496.80-18.08L496.80-18.08Q494.92-18.08 493.12-17.46Q491.32-16.84 490.08-15.80L490.08-15.80L488.48-18.68Q490.12-20 492.40-20.70Q494.68-21.40 497.24-21.40L497.24-21.40ZM496.36-2.72Q498.56-2.72 500.16-3.70Q501.76-4.68 502.48-6.48L502.48-6.48L502.48-9.44L496.56-9.44Q491.68-9.44 491.68-6.16L491.68-6.16Q491.68-4.56 492.92-3.64Q494.16-2.72 496.36-2.72L496.36-2.72Z M530.16-4L531.36-1.24Q530.52-0.52 529.28-0.14Q528.04 0.24 526.72 0.24L526.72 0.24Q523.52 0.24 521.76-1.48Q520-3.20 520-6.40L520-6.40L520-18.04L516.40-18.04L516.40-21.20L520-21.20L520-25.84L523.84-25.84L523.84-21.20L529.92-21.20L529.92-18.04L523.84-18.04L523.84-6.56Q523.84-4.84 524.70-3.92Q525.56-3 527.16-3L527.16-3Q528.92-3 530.16-4L530.16-4Z M558.76 0L558.76-21.20L562.60-21.20L562.60 0L558.76 0ZM560.68-25.28Q559.56-25.28 558.82-26Q558.08-26.72 558.08-27.76L558.08-27.76Q558.08-28.80 558.82-29.54Q559.56-30.28 560.68-30.28L560.68-30.28Q561.80-30.28 562.54-29.58Q563.28-28.88 563.28-27.84L563.28-27.84Q563.28-26.76 562.54-26.02Q561.80-25.28 560.68-25.28L560.68-25.28Z M586.64-4L587.84-1.24Q587.00-0.52 585.76-0.14Q584.52 0.24 583.20 0.24L583.20 0.24Q580.00 0.24 578.24-1.48Q576.48-3.20 576.48-6.40L576.48-6.40L576.48-18.04L572.88-18.04L572.88-21.20L576.48-21.20L576.48-25.84L580.32-25.84L580.32-21.20L586.40-21.20L586.40-18.04L580.32-18.04L580.32-6.56Q580.32-4.84 581.18-3.92Q582.04-3 583.64-3L583.64-3Q585.40-3 586.64-4L586.64-4Z M643.88-21.20L647.32-21.20L639.40 0L635.72 0L629.60-16.08L623.40 0L619.72 0L611.84-21.20L615.48-21.20L621.64-4.32L628.04-21.20L631.28-21.20L637.56-4.24L643.88-21.20Z M675.76-10.48Q675.76-10.04 675.68-9.32L675.68-9.32L658.48-9.32Q658.84-6.52 660.94-4.82Q663.04-3.12 666.16-3.12L666.16-3.12Q669.96-3.12 672.28-5.68L672.28-5.68L674.40-3.20Q672.96-1.52 670.82-0.64Q668.68 0.24 666.04 0.24L666.04 0.24Q662.68 0.24 660.08-1.14Q657.48-2.52 656.06-5Q654.64-7.48 654.64-10.60L654.64-10.60Q654.64-13.68 656.02-16.16Q657.40-18.64 659.82-20.02Q662.24-21.40 665.28-21.40L665.28-21.40Q668.32-21.40 670.70-20.02Q673.08-18.64 674.42-16.16Q675.76-13.68 675.76-10.48L675.76-10.48ZM665.28-18.16Q662.52-18.16 660.66-16.48Q658.80-14.80 658.48-12.08L658.48-12.08L672.08-12.08Q671.76-14.76 669.90-16.46Q668.04-18.16 665.28-18.16L665.28-18.16Z M687.08 0L687.08-29.68L690.92-29.68L690.92 0L687.08 0Z M704.24 0L704.24-29.68L708.08-29.68L708.08 0L704.24 0Z"/></g>
</svg>
</g><g opacity="1" transform="rotate(0 105.1663 376.6605)">
<svg width="372.337" height="50" x="105.1663" y="376.6605" version="1.1" preserveAspectRatio="none" viewBox="-0.2 -30.88 232.04 31.16">
  <g transform="matrix(1 0 0 1 0 0)" class="companyName"><path id="id-D6z1nYkh11" d="M24.72 0L21.92-6.48L7.92-6.48L5.16 0L-0.20 0L12.40-28L17.52-28L30.16 0L24.72 0ZM9.68-10.56L20.20-10.56L14.92-22.80L9.68-10.56Z M45.36-21.60Q49.40-21.60 51.84-19.24Q54.28-16.88 54.28-12.24L54.28-12.24L54.28 0L49.28 0L49.28-11.60Q49.28-14.40 47.96-15.82Q46.64-17.24 44.20-17.24L44.20-17.24Q41.44-17.24 39.84-15.58Q38.24-13.92 38.24-10.80L38.24-10.80L38.24 0L33.24 0L33.24-21.36L38-21.36L38-18.60Q39.24-20.08 41.12-20.84Q43-21.60 45.36-21.60L45.36-21.60Z M72.76-21.60Q76.80-21.60 79.24-19.24Q81.68-16.88 81.68-12.24L81.68-12.24L81.68 0L76.68 0L76.68-11.60Q76.68-14.40 75.36-15.82Q74.04-17.24 71.60-17.24L71.60-17.24Q68.84-17.24 67.24-15.58Q65.64-13.92 65.64-10.80L65.64-10.80L65.64 0L60.64 0L60.64-21.36L65.40-21.36L65.40-18.60Q66.64-20.08 68.52-20.84Q70.40-21.60 72.76-21.60L72.76-21.60Z M97.84 0.28Q94.60 0.28 92.00-1.12Q89.40-2.52 87.94-5.02Q86.48-7.52 86.48-10.68L86.48-10.68Q86.48-13.84 87.94-16.32Q89.40-18.80 92.00-20.20Q94.60-21.60 97.84-21.60L97.84-21.60Q101.12-21.60 103.72-20.20Q106.32-18.80 107.78-16.32Q109.24-13.84 109.24-10.68L109.24-10.68Q109.24-7.52 107.78-5.02Q106.32-2.52 103.72-1.12Q101.12 0.28 97.84 0.28L97.84 0.28ZM97.84-4Q100.60-4 102.40-5.84Q104.20-7.68 104.20-10.68L104.20-10.68Q104.20-13.68 102.40-15.52Q100.60-17.36 97.84-17.36L97.84-17.36Q95.08-17.36 93.30-15.52Q91.52-13.68 91.52-10.68L91.52-10.68Q91.52-7.68 93.30-5.84Q95.08-4 97.84-4L97.84-4Z M125.48-4.72L126.88-1.16Q126-0.44 124.74-0.08Q123.48 0.28 122.08 0.28L122.08 0.28Q118.56 0.28 116.64-1.56Q114.72-3.40 114.72-6.92L114.72-6.92L114.72-17.20L111.20-17.20L111.20-21.20L114.72-21.20L114.72-26.08L119.72-26.08L119.72-21.20L125.44-21.20L125.44-17.20L119.72-17.20L119.72-7.04Q119.72-5.48 120.48-4.66Q121.24-3.84 122.68-3.84L122.68-3.84Q124.36-3.84 125.48-4.72L125.48-4.72Z M139.16-21.60Q143.88-21.60 146.38-19.34Q148.88-17.08 148.88-12.52L148.88-12.52L148.88 0L144.16 0L144.16-2.60Q143.24-1.20 141.54-0.46Q139.84 0.28 137.44 0.28L137.44 0.28Q135.04 0.28 133.24-0.54Q131.44-1.36 130.46-2.82Q129.48-4.28 129.48-6.12L129.48-6.12Q129.48-9 131.62-10.74Q133.76-12.48 138.36-12.48L138.36-12.48L143.88-12.48L143.88-12.80Q143.88-15.04 142.54-16.24Q141.20-17.44 138.56-17.44L138.56-17.44Q136.76-17.44 135.02-16.88Q133.28-16.32 132.08-15.32L132.08-15.32L130.12-18.96Q131.80-20.24 134.16-20.92Q136.52-21.60 139.16-21.60L139.16-21.60ZM138.48-3.36Q140.36-3.36 141.82-4.22Q143.28-5.08 143.88-6.68L143.88-6.68L143.88-9.16L138.72-9.16Q134.40-9.16 134.40-6.32L134.40-6.32Q134.40-4.96 135.48-4.16Q136.56-3.36 138.48-3.36L138.48-3.36Z M166.72-4.72L168.12-1.16Q167.24-0.44 165.98-0.08Q164.72 0.28 163.32 0.28L163.32 0.28Q159.80 0.28 157.88-1.56Q155.96-3.40 155.96-6.92L155.96-6.92L155.96-17.20L152.44-17.20L152.44-21.20L155.96-21.20L155.96-26.08L160.96-26.08L160.96-21.20L166.68-21.20L166.68-17.20L160.96-17.20L160.96-7.04Q160.96-5.48 161.72-4.66Q162.48-3.84 163.92-3.84L163.92-3.84Q165.60-3.84 166.72-4.72L166.72-4.72Z M191.60-10.56Q191.60-10.04 191.52-9.08L191.52-9.08L174.76-9.08Q175.20-6.72 177.06-5.34Q178.92-3.96 181.68-3.96L181.68-3.96Q185.20-3.96 187.48-6.28L187.48-6.28L190.16-3.20Q188.72-1.48 186.52-0.60Q184.32 0.28 181.56 0.28L181.56 0.28Q178.04 0.28 175.36-1.12Q172.68-2.52 171.22-5.02Q169.76-7.52 169.76-10.68L169.76-10.68Q169.76-13.80 171.18-16.30Q172.60-18.80 175.12-20.20Q177.64-21.60 180.80-21.60L180.80-21.60Q183.92-21.60 186.38-20.22Q188.84-18.84 190.22-16.34Q191.60-13.84 191.60-10.56L191.60-10.56ZM180.80-17.60Q178.40-17.60 176.74-16.18Q175.08-14.76 174.72-12.40L174.72-12.40L186.84-12.40Q186.52-14.72 184.88-16.16Q183.24-17.60 180.80-17.60L180.80-17.60Z M207.44 0L207.44-21.36L212.44-21.36L212.44 0L207.44 0ZM209.96-24.88Q208.60-24.88 207.68-25.74Q206.76-26.60 206.76-27.88L206.76-27.88Q206.76-29.16 207.68-30.02Q208.60-30.88 209.96-30.88L209.96-30.88Q211.32-30.88 212.24-30.06Q213.16-29.24 213.16-28L213.16-28Q213.16-26.68 212.26-25.78Q211.36-24.88 209.96-24.88L209.96-24.88Z M230.44-4.72L231.84-1.16Q230.96-0.44 229.70-0.08Q228.44 0.28 227.04 0.28L227.04 0.28Q223.52 0.28 221.60-1.56Q219.68-3.40 219.68-6.92L219.68-6.92L219.68-17.20L216.16-17.20L216.16-21.20L219.68-21.20L219.68-26.08L224.68-26.08L224.68-21.20L230.40-21.20L230.40-17.20L224.68-17.20L224.68-7.04Q224.68-5.48 225.44-4.66Q226.20-3.84 227.64-3.84L227.64-3.84Q229.32-3.84 230.44-4.72L230.44-4.72Z"/></g>
</svg>
</g><g opacity="1" transform="rotate(0 198.2505 200.1693)">
<svg width="186.1685" height="146.4912" x="198.2505" y="200.1693" version="1.1" preserveAspectRatio="none" viewBox="20 37.10000228881836 160 125.89999389648438">
  <g transform="matrix(1 0 0 1 0 0)"><g><path d="M100 155.1c-9.7 0-17.5-7.3-17.5-16.2V80.8c0-8.9 7.9-16.2 17.5-16.2s17.5 7.3 17.5 16.2V139c0 8.8-7.8 16.1-17.5 16.1zm0-89.1c-8.8 0-16 6.6-16 14.8V139c0 8.1 7.2 14.8 16 14.8s16-6.6 16-14.8V80.8c0-8.2-7.2-14.8-16-14.8z" data-color="1" class="icon1"></path><path d="M100.1 141.7c-9.2 0-16.7-4.5-16.7-10.1 0-.3 0-.5-.1-.8v14.7c0 9.2 7.5 16.7 16.8 16.7 9.2 0 16.7-7.5 16.8-16.7v-14c-.1 5.6-7.6 10.2-16.8 10.2z" data-color="2" class="icon2"></path><path d="M100 163c-9.7 0-17.5-7.8-17.5-17.5v-16.1l1.2.7c.1.1.5.3.5 1.4 0 5.1 7.1 9.3 15.9 9.3s15.9-4.2 15.9-9.3h1.6v14c-.1 9.7-7.9 17.5-17.6 17.5zm-16-27.1v9.7c0 8.8 7.2 15.9 16 15.9s16-7.1 16-15.9v-9.5c-2.7 3.8-8.9 6.4-15.9 6.4-7.2-.1-13.4-2.8-16.1-6.6z" data-color="1" class="icon1"></path><path d="M100 63.5c-12.9 0-23.4 6.3-23.4 14.1S87.1 91.8 100 91.8s23.4-6.3 23.4-14.1-10.5-14.2-23.4-14.2zm0 21.3c-6.5 0-11.9-3.2-11.9-7.2s5.3-7.2 11.9-7.2c6.5 0 11.9 3.2 11.9 7.2-.1 4-5.4 7.2-11.9 7.2z" data-color="3" class="icon3"></path><path d="M100 85.6c-7.1 0-12.6-3.5-12.6-7.9s5.5-7.9 12.6-7.9 12.6 3.5 12.6 7.9-5.5 7.9-12.6 7.9zm0-14.3c-6 0-11.1 2.9-11.1 6.4S94 84 100 84s11.1-2.9 11.1-6.4-5.1-6.3-11.1-6.3z" data-color="1" class="icon1"></path><path d="M155.6 146.4c-9.7 0-17.5-6.6-17.5-14.6V79.2c0-8.1 7.9-14.6 17.5-14.6s17.5 6.6 17.5 14.6v52.6c.1 8-7.8 14.6-17.5 14.6zm0-80.5c-8.8 0-16 6-16 13.3v52.6c0 7.4 7.2 13.3 16 13.3s16-6 16-13.3V79.2c0-7.4-7.1-13.3-16-13.3z" data-color="1" class="icon1"></path><path d="M155.8 63.5c-12.9 0-23.4 6.3-23.4 14.1s10.5 14.1 23.4 14.1 23.4-6.3 23.4-14.1-10.5-14.1-23.4-14.1zm0 21.3c-6.5 0-11.9-3.2-11.9-7.2s5.3-7.2 11.9-7.2 11.9 3.2 11.9 7.2-5.3 7.2-11.9 7.2z" data-color="3" class="icon3"></path><path d="M155.8 85.6c-7.1 0-12.6-3.5-12.6-7.9s5.5-7.9 12.6-7.9 12.6 3.5 12.6 7.9-5.5 7.9-12.6 7.9zm0-14.3c-6 0-11.1 2.9-11.1 6.4s5.1 6.4 11.1 6.4 11.1-2.9 11.1-6.4-5.1-6.4-11.1-6.4z" data-color="1" class="icon1"></path><path d="M155.7 125.1c-9.2 0-16.7-4.5-16.7-10.1 0-.3 0-.5-.1-.8v31.3c0 9.2 7.5 16.7 16.8 16.7 9.2 0 16.7-7.5 16.8-16.7V115c-.1 5.6-7.6 10.1-16.8 10.1z" data-color="2" class="icon2"></path><path d="M155.6 163c-9.7 0-17.5-7.8-17.5-17.5v-32.6l1.2.7c.1.1.5.3.5 1.4 0 5.1 7.1 9.3 15.9 9.3s15.9-4.2 15.9-9.3h1.6v30.5c0 9.7-7.9 17.5-17.6 17.5zm-16-43.6v26.2c.1 8.8 7.3 15.9 16.1 15.8 8.7-.1 15.8-7.1 15.9-15.8v-26c-2.8 3.8-8.9 6.4-15.9 6.4-7.2-.1-13.4-2.8-16.1-6.6z" data-color="1" class="icon1"></path><path d="M44.2 149.7c-9.7 0-17.5-6.8-17.5-15.2V79.8c0-8.4 7.9-15.2 17.5-15.2s17.5 6.8 17.5 15.2v54.7c0 8.3-7.9 15.2-17.5 15.2zm0-83.8c-8.8 0-16 6.2-16 13.9v54.7c0 7.6 7.2 13.9 16 13.9s16-6.2 16-13.9V79.8c0-7.7-7.2-13.9-16-13.9z" data-color="1" class="icon1"></path><path d="M44.2 63.5c-12.9 0-23.4 6.3-23.4 14.1s10.5 14.1 23.4 14.1 23.4-6.3 23.4-14.1-10.5-14.1-23.4-14.1zm0 21.3c-6.5 0-11.9-3.2-11.9-7.2s5.3-7.2 11.9-7.2S56 73.7 56 77.6c0 4-5.3 7.2-11.8 7.2z" data-color="3" class="icon3"></path><path d="M44.2 85.6c-7.1 0-12.6-3.5-12.6-7.9s5.5-7.9 12.6-7.9 12.6 3.5 12.6 7.9-5.5 7.9-12.6 7.9zm0-14.3c-6 0-11.1 2.9-11.1 6.4S38.2 84 44.2 84s11.1-2.9 11.1-6.4-5.1-6.3-11.1-6.3z" data-color="1" class="icon1"></path><path d="M44.2 109c-9.2 0-16.7-4.5-16.7-10.1 0-.3 0-.5-.1-.8v47.4c0 9.2 7.5 16.7 16.8 16.7 9.2 0 16.7-7.5 16.8-16.7V98.9c-.1 5.6-7.5 10.1-16.8 10.1z" data-color="2" class="icon2"></path><path d="M44.2 163c-9.7 0-17.5-7.8-17.5-17.5V96.7l1.2.7c.1.1.5.3.5 1.4 0 5.1 7.1 9.3 15.9 9.3s15.9-4.2 15.9-9.3h1.6v46.6c-.1 9.8-7.9 17.6-17.6 17.6zm-16-59.8v42.3c0 8.8 7.2 15.9 16 15.9s16-7.1 16-15.9v-42.1c-2.8 3.8-8.9 6.4-15.9 6.4-7.2 0-13.4-2.7-16.1-6.6z" data-color="1" class="icon1"></path><path d="M100.1 109.7v-1.5c8.8 0 15.9-4.2 15.9-9.3h1.6c-.1 5.9-7.9 10.8-17.5 10.8z" data-color="1" class="icon1"></path><path d="M100.1 126.1v-1.5c8.8 0 15.9-4.2 15.9-9.3h1.6c-.1 5.9-7.9 10.8-17.5 10.8z" data-color="1" class="icon1"></path><path d="M100.1 142.4v-1.5c8.8 0 15.9-4.2 15.9-9.3h1.6c-.1 5.9-7.9 10.8-17.5 10.8z" data-color="1" class="icon1"></path><path d="M44.2 126.1v-1.5c8.8 0 15.9-4.2 15.9-9.3h1.6c0 5.9-7.8 10.8-17.5 10.8z" data-color="1" class="icon1"></path><path d="M44.2 142.4v-1.5c8.8 0 15.9-4.2 15.9-9.3h1.6c0 5.9-7.8 10.8-17.5 10.8z" data-color="1" class="icon1"></path><path d="M155.7 109.7v-1.5c8.8 0 15.9-4.2 15.9-9.3h1.6c0 5.9-7.9 10.8-17.5 10.8z" data-color="1" class="icon1"></path><path d="M155.7 142.4v-1.5c8.8 0 15.9-4.2 15.9-9.3h1.6c0 5.9-7.9 10.8-17.5 10.8z" data-color="1" class="icon1"></path><path d="M104.3 72.4c0 2.1-1.7 3.9-3.9 3.9s-3.9-1.7-3.9-3.9c0-2.1 1.7-3.9 3.9-3.9s3.9 1.8 3.9 3.9z" data-color="2" class="icon2"></path><path d="M100.4 77c-2.6 0-4.7-2.1-4.7-4.6 0-2.6 2.1-4.6 4.7-4.6s4.7 2.1 4.7 4.6c0 2.6-2.1 4.6-4.7 4.6zm0-7.7c-1.7 0-3.1 1.4-3.1 3.1s1.4 3.1 3.1 3.1c1.7 0 3.1-1.4 3.1-3.1.1-1.7-1.3-3.1-3.1-3.1z" data-color="1" class="icon1"></path><path d="M100.8 52.6c0 2.1-1.7 3.9-3.9 3.9S93 54.7 93 52.6c0-2.1 1.7-3.9 3.9-3.9s3.9 1.7 3.9 3.9z" data-color="2" class="icon2"></path><path d="M96.9 57.2c-2.6 0-4.7-2.1-4.7-4.6 0-2.6 2.1-4.6 4.7-4.6s4.7 2.1 4.7 4.6c0 2.5-2.1 4.6-4.7 4.6zm0-7.7c-1.7 0-3.1 1.4-3.1 3.1s1.4 3.1 3.1 3.1c1.7 0 3.1-1.4 3.1-3.1 0-1.7-1.4-3.1-3.1-3.1z" data-color="1" class="icon1"></path><path d="M104.3 41.6c0 2.1-1.7 3.9-3.9 3.9s-3.9-1.7-3.9-3.9c0-2.1 1.7-3.9 3.9-3.9 2.2.1 3.9 1.8 3.9 3.9z" data-color="2" class="icon2"></path><path d="M100.4 46.3c-2.6 0-4.7-2.1-4.7-4.6 0-2.6 2.1-4.6 4.7-4.6s4.7 2.1 4.7 4.6c0 2.5-2.1 4.6-4.7 4.6zm0-7.8c-1.7 0-3.1 1.4-3.1 3.1 0 1.7 1.4 3.1 3.1 3.1 1.7 0 3.1-1.4 3.1-3.1.1-1.7-1.3-3.1-3.1-3.1z" data-color="1" class="icon1"></path><path d="M44.2 92.5C30.8 92.5 20 85.9 20 77.6s10.8-14.9 24.2-14.9 24.2 6.7 24.2 14.9-10.9 14.9-24.2 14.9zm0-28.2c-12.5 0-22.6 6-22.6 13.4S31.7 91 44.2 91s22.6-6 22.6-13.4-10.2-13.3-22.6-13.3z" data-color="1" class="icon1"></path><path d="M100 92.5c-13.3 0-24.2-6.7-24.2-14.9S86.7 62.7 100 62.7s24.2 6.7 24.2 14.9-10.9 14.9-24.2 14.9zm0-28.2c-12.5 0-22.6 6-22.6 13.4S87.5 91 100 91s22.6-6 22.6-13.4-10.1-13.3-22.6-13.3z" data-color="1" class="icon1"></path><path d="M155.8 92.5c-13.3 0-24.2-6.7-24.2-14.9s10.8-14.9 24.2-14.9S180 69.4 180 77.6s-10.8 14.9-24.2 14.9zm0-28.2c-12.5 0-22.6 6-22.6 13.4S143.3 91 155.8 91s22.6-6 22.6-13.4-10.1-13.3-22.6-13.3z" data-color="1" class="icon1"></path><path d="M107.9 62.5c0 2.1-1.7 3.9-3.9 3.9-2.1 0-3.9-1.7-3.9-3.9 0-2.1 1.7-3.9 3.9-3.9 2.1 0 3.9 1.8 3.9 3.9z" data-color="2" class="icon2"></path><path d="M104 67.1c-2.6 0-4.7-2.1-4.7-4.6 0-2.6 2.1-4.6 4.7-4.6s4.7 2.1 4.7 4.6c-.1 2.5-2.1 4.6-4.7 4.6zm0-7.7c-1.7 0-3.1 1.4-3.1 3.1 0 1.7 1.4 3.1 3.1 3.1 1.7 0 3.1-1.4 3.1-3.1 0-1.7-1.4-3.1-3.1-3.1z" data-color="1" class="icon1"></path></g></g>
</svg>
</g></svg></svg>