<svg version="1.1" preserveAspectRatio="none" xmlns="http://www.w3.org/2000/svg" width="500" height="500" viewBox="0 0 500 500"><rect width="100%" height="100%" fill="#F7F7F7" fill-opacity="1"/><svg viewBox="648.6007 453.9346 436.7717 286.0465" width="333" height="218.08529375873022" x="83.5px" y="140.9574px" xmlns="http://www.w3.org/2000/svg" xmlns:xlink="http://www.w3.org/1999/xlink" preserveAspectRatio="none"><defs></defs><style>.companyName {fill:#2B2B2B;fill-opacity:1;}.icon1 {fill:#2B2B2B;fill-opacity:1;}.icon2 {fill:#59C65B;fill-opacity:1;}.icon3 {fill:#6D6D6D;fill-opacity:1;}.icon3-str {stroke:#6D6D6D;stroke-opacity:1;}</style><g opacity="1" transform="rotate(0 795.0999 453.9346)">
<svg width="143.7734" height="144.0465" x="795.0999" y="453.9346" version="1.1" preserveAspectRatio="none" viewBox="6.059000015258789 5.51200008392334 78.43800354003906 78.58699798583984">
  <g transform="matrix(1 0 0 1 0 0)" class="icon1"><path d="M77.101,47.19l0.042,9.823H62.54V37.366h-5.058L57.44,66.395H42.894v-38.41h-5.093l0.041,29.028H23.247  V37.393l-5.065,0.057l-0.042,9.74H6.059C7.291,67.78,24.378,84.099,45.278,84.099S83.264,67.78,84.497,47.19H77.101z"></path><path d="M13.392,42.421l0.041-9.686l14.581-0.164v19.673h5.052l-0.041-29.028h14.636v38.41h5.017l0.042-29.029  h14.588v19.646h5.045l-0.042-9.823h12.185C83.264,21.831,66.178,5.512,45.278,5.512S7.291,21.831,6.059,42.421H13.392z"></path></g>
</svg>
</g><g opacity="1" transform="rotate(0 648.6007 715.9811)">
<svg width="436.7717" height="24" x="648.6007" y="715.9811" version="1.1" preserveAspectRatio="none" viewBox="0.1367 -30 701.1641 38.5352">
  <g transform="matrix(1 0 0 1 0 0)" class="companyName"><path id="id-6izo4zJp36" d="M20.57 0L18.59-5.86L8.32-5.86L6.37 0L0.14 0L10.72-28.44L16.15-28.44L26.80 0L20.57 0ZM13.44-21.25L9.90-10.61L17.01-10.61L13.44-21.25Z M28.83-21.13L34.14-21.13L34.32-18.69Q36.58-21.52 40.39-21.52L40.39-21.52Q43.75-21.52 45.39-19.55Q47.03-17.58 47.07-13.65L47.07-13.65L47.07 0L41.42 0L41.42-13.52Q41.42-15.31 40.64-16.12Q39.86-16.93 38.05-16.93L38.05-16.93Q35.66-16.93 34.47-14.90L34.47-14.90L34.47 0L28.83 0L28.83-21.13Z M70.10 0L64.39 0Q64.00-0.76 63.83-1.89L63.83-1.89Q61.78 0.39 58.49 0.39L58.49 0.39Q55.39 0.39 53.35-1.41Q51.31-3.20 51.31-5.94L51.31-5.94Q51.31-9.30 53.80-11.09Q56.29-12.89 60.99-12.91L60.99-12.91L63.59-12.91L63.59-14.12Q63.59-15.59 62.84-16.46Q62.09-17.34 60.47-17.34L60.47-17.34Q59.04-17.34 58.23-16.66Q57.42-15.98 57.42-14.79L57.42-14.79L51.78-14.79Q51.78-16.62 52.91-18.18Q54.04-19.75 56.11-20.63Q58.18-21.52 60.76-21.52L60.76-21.52Q64.67-21.52 66.96-19.56Q69.26-17.60 69.26-14.04L69.26-14.04L69.26-4.88Q69.28-1.88 70.10-0.33L70.10-0.33L70.10 0ZM59.72-3.93L59.72-3.93Q60.97-3.93 62.03-4.48Q63.08-5.04 63.59-5.98L63.59-5.98L63.59-9.61L61.48-9.61Q57.24-9.61 56.97-6.68L56.97-6.68L56.95-6.35Q56.95-5.29 57.69-4.61Q58.44-3.93 59.72-3.93Z M80.35-30L80.35 0L74.69 0L74.69-30L80.35-30Z M89.76-21.13L93.69-7.99L97.59-21.13L103.65-21.13L95.15 3.28L94.68 4.39Q92.79 8.54 88.43 8.54L88.43 8.54Q87.20 8.54 85.93 8.16L85.93 8.16L85.93 3.89L86.79 3.91Q88.40 3.91 89.19 3.42Q89.98 2.93 90.43 1.80L90.43 1.80L91.09 0.06L83.69-21.13L89.76-21.13Z M107.79-26.33L113.43-26.33L113.43-21.13L117.05-21.13L117.05-16.99L113.43-16.99L113.43-6.45Q113.43-5.27 113.88-4.77Q114.33-4.26 115.60-4.26L115.60-4.26Q116.54-4.26 117.26-4.39L117.26-4.39L117.26-0.12Q115.60 0.39 113.84 0.39L113.84 0.39Q107.91 0.39 107.79-5.61L107.79-5.61L107.79-16.99L104.70-16.99L104.70-21.13L107.79-21.13L107.79-26.33Z M126.95-21.13L126.95 0L121.28 0L121.28-21.13L126.95-21.13ZM120.95-26.60L120.95-26.60Q120.95-27.87 121.80-28.69Q122.65-29.51 124.12-29.51L124.12-29.51Q125.56-29.51 126.42-28.69Q127.28-27.87 127.28-26.60L127.28-26.60Q127.28-25.31 126.41-24.49Q125.54-23.67 124.12-23.67Q122.69-23.67 121.82-24.49Q120.95-25.31 120.95-26.60Z M141.19-4.16L141.19-4.16Q142.75-4.16 143.72-5.02Q144.70-5.88 144.74-7.30L144.74-7.30L150.03-7.30Q150.01-5.16 148.86-3.37Q147.71-1.58 145.71-0.60Q143.71 0.39 141.28 0.39L141.28 0.39Q136.75 0.39 134.14-2.49Q131.52-5.37 131.52-10.45L131.52-10.45L131.52-10.82Q131.52-15.70 134.12-18.61Q136.71-21.52 141.24-21.52L141.24-21.52Q145.21-21.52 147.60-19.27Q149.99-17.01 150.03-13.26L150.03-13.26L144.74-13.26Q144.70-14.90 143.72-15.93Q142.75-16.95 141.15-16.95L141.15-16.95Q139.17-16.95 138.17-15.52Q137.16-14.08 137.16-10.86L137.16-10.86L137.16-10.27Q137.16-7.01 138.16-5.59Q139.15-4.16 141.19-4.16Z M165.50-5.84L165.50-5.84Q165.50-6.88 164.48-7.47Q163.45-8.07 161.19-8.54L161.19-8.54Q153.65-10.12 153.65-14.94L153.65-14.94Q153.65-17.75 155.98-19.64Q158.31-21.52 162.08-21.52L162.08-21.52Q166.11-21.52 168.52-19.63Q170.93-17.73 170.93-14.71L170.93-14.71L165.29-14.71Q165.29-15.92 164.51-16.71Q163.72-17.50 162.06-17.50L162.06-17.50Q160.64-17.50 159.86-16.86Q159.08-16.21 159.08-15.21L159.08-15.21Q159.08-14.28 159.96-13.70Q160.85-13.13 162.96-12.71Q165.07-12.29 166.52-11.76L166.52-11.76Q170.99-10.12 170.99-6.07L170.99-6.07Q170.99-3.18 168.51-1.40Q166.03 0.39 162.10 0.39L162.10 0.39Q159.45 0.39 157.39-0.56Q155.33-1.50 154.15-3.15Q152.98-4.80 152.98-6.72L152.98-6.72L158.33-6.72Q158.41-5.21 159.45-4.41Q160.48-3.61 162.22-3.61L162.22-3.61Q163.84-3.61 164.67-4.23Q165.50-4.84 165.50-5.84Z M202.20-28.44L208.08-28.44L208.08-9.71Q208.08-5.04 205.16-2.32Q202.24 0.39 197.18 0.39L197.18 0.39Q192.20 0.39 189.27-2.25Q186.34-4.88 186.28-9.49L186.28-9.49L186.28-28.44L192.14-28.44L192.14-9.67Q192.14-6.88 193.48-5.60Q194.82-4.32 197.18-4.32L197.18-4.32Q202.12-4.32 202.20-9.51L202.20-9.51L202.20-28.44Z M213.19-21.13L218.51-21.13L218.68-18.69Q220.95-21.52 224.76-21.52L224.76-21.52Q228.12-21.52 229.76-19.55Q231.40-17.58 231.44-13.65L231.44-13.65L231.44 0L225.79 0L225.79-13.52Q225.79-15.31 225.01-16.12Q224.23-16.93 222.41-16.93L222.41-16.93Q220.03-16.93 218.84-14.90L218.84-14.90L218.84 0L213.19 0L213.19-21.13Z M242.47-30L242.47 0L236.81 0L236.81-30L242.47-30Z M257.65 0.39L257.65 0.39Q253.00 0.39 250.08-2.46Q247.16-5.31 247.16-10.06L247.16-10.06L247.16-10.61Q247.16-13.79 248.39-16.30Q249.62-18.81 251.87-20.17Q254.13-21.52 257.02-21.52L257.02-21.52Q261.36-21.52 263.85-18.79Q266.34-16.05 266.34-11.04L266.34-11.04L266.34-8.73L252.88-8.73Q253.15-6.66 254.53-5.41Q255.91-4.16 258.02-4.16L258.02-4.16Q261.28-4.16 263.11-6.52L263.11-6.52L265.89-3.42Q264.62-1.62 262.45-0.62Q260.28 0.39 257.65 0.39ZM257.00-16.95L257.00-16.95Q255.32-16.95 254.28-15.82Q253.23-14.69 252.94-12.58L252.94-12.58L260.79-12.58L260.79-13.03Q260.75-14.90 259.78-15.93Q258.80-16.95 257.00-16.95Z M288.29 0L282.59 0Q282.20-0.76 282.02-1.89L282.02-1.89Q279.97 0.39 276.69 0.39L276.69 0.39Q273.58 0.39 271.54-1.41Q269.50-3.20 269.50-5.94L269.50-5.94Q269.50-9.30 271.99-11.09Q274.48-12.89 279.19-12.91L279.19-12.91L281.79-12.91L281.79-14.12Q281.79-15.59 281.03-16.46Q280.28-17.34 278.66-17.34L278.66-17.34Q277.24-17.34 276.42-16.66Q275.61-15.98 275.61-14.79L275.61-14.79L269.97-14.79Q269.97-16.62 271.10-18.18Q272.24-19.75 274.31-20.63Q276.38-21.52 278.95-21.52L278.95-21.52Q282.86-21.52 285.16-19.56Q287.45-17.60 287.45-14.04L287.45-14.04L287.45-4.88Q287.47-1.88 288.29-0.33L288.29-0.33L288.29 0ZM277.92-3.93L277.92-3.93Q279.17-3.93 280.22-4.48Q281.28-5.04 281.79-5.98L281.79-5.98L281.79-9.61L279.68-9.61Q275.44-9.61 275.16-6.68L275.16-6.68L275.15-6.35Q275.15-5.29 275.89-4.61Q276.63-3.93 277.92-3.93Z M304.03-5.84L304.03-5.84Q304.03-6.88 303.01-7.47Q301.98-8.07 299.71-8.54L299.71-8.54Q292.18-10.12 292.18-14.94L292.18-14.94Q292.18-17.75 294.51-19.64Q296.84-21.52 300.61-21.52L300.61-21.52Q304.64-21.52 307.05-19.63Q309.46-17.73 309.46-14.71L309.46-14.71L303.82-14.71Q303.82-15.92 303.04-16.71Q302.25-17.50 300.59-17.50L300.59-17.50Q299.17-17.50 298.39-16.86Q297.61-16.21 297.61-15.21L297.61-15.21Q297.61-14.28 298.49-13.70Q299.38-13.13 301.49-12.71Q303.60-12.29 305.05-11.76L305.05-11.76Q309.52-10.12 309.52-6.07L309.52-6.07Q309.52-3.18 307.04-1.40Q304.56 0.39 300.63 0.39L300.63 0.39Q297.98 0.39 295.92-0.56Q293.86-1.50 292.68-3.15Q291.51-4.80 291.51-6.72L291.51-6.72L296.86-6.72Q296.94-5.21 297.98-4.41Q299.01-3.61 300.75-3.61L300.75-3.61Q302.37-3.61 303.20-4.23Q304.03-4.84 304.03-5.84Z M319.46-30L319.46-18.83Q321.71-21.52 325.10-21.52L325.10-21.52Q331.98-21.52 332.08-13.54L332.08-13.54L332.08 0L326.43 0L326.43-13.38Q326.43-15.20 325.65-16.06Q324.87-16.93 323.05-16.93L323.05-16.93Q320.57-16.93 319.46-15.02L319.46-15.02L319.46 0L313.82 0L313.82-30L319.46-30Z M346.86 0.39L346.86 0.39Q342.21 0.39 339.29-2.46Q336.37-5.31 336.37-10.06L336.37-10.06L336.37-10.61Q336.37-13.79 337.60-16.30Q338.83-18.81 341.09-20.17Q343.35-21.52 346.24-21.52L346.24-21.52Q350.57-21.52 353.06-18.79Q355.55-16.05 355.55-11.04L355.55-11.04L355.55-8.73L342.10-8.73Q342.37-6.66 343.75-5.41Q345.12-4.16 347.23-4.16L347.23-4.16Q350.49-4.16 352.33-6.52L352.33-6.52L355.10-3.42Q353.83-1.62 351.67-0.62Q349.50 0.39 346.86 0.39ZM346.22-16.95L346.22-16.95Q344.54-16.95 343.49-15.82Q342.45-14.69 342.15-12.58L342.15-12.58L350.01-12.58L350.01-13.03Q349.97-14.90 348.99-15.93Q348.01-16.95 346.22-16.95Z M358.68-10.72L358.68-10.72Q358.68-15.66 360.89-18.59Q363.11-21.52 366.96-21.52L366.96-21.52Q370.04-21.52 372.06-19.22L372.06-19.22L372.06-30L377.72-30L377.72 0L372.62 0L372.35-2.25Q370.24 0.39 366.92 0.39L366.92 0.39Q363.19 0.39 360.93-2.55Q358.68-5.49 358.68-10.72ZM364.32-10.31L364.32-10.31Q364.32-7.34 365.36-5.76Q366.39-4.18 368.36-4.18L368.36-4.18Q370.98-4.18 372.06-6.39L372.06-6.39L372.06-14.73Q371.00-16.93 368.40-16.93L368.40-16.93Q364.32-16.93 364.32-10.31Z M384.36 7.13L384.36 7.13L381.41 5.59L382.11 4.32Q383.42 1.93 383.46-0.43L383.46-0.43L383.46-4.80L388.23-4.80L388.21-0.90Q388.19 1.27 387.11 3.48Q386.04 5.68 384.36 7.13Z M421.70-16.35L421.70-11.62L410.45-11.62L410.45 0L404.59 0L404.59-28.44L423.11-28.44L423.11-23.69L410.45-23.69L410.45-16.35L421.70-16.35Z M439.32 0L439.16-2.15Q437.07 0.39 433.38 0.39L433.38 0.39Q429.98 0.39 428.20-1.56Q426.41-3.52 426.37-7.29L426.37-7.29L426.37-21.13L432.01-21.13L432.01-7.48Q432.01-4.18 435.02-4.18L435.02-4.18Q437.89-4.18 438.97-6.17L438.97-6.17L438.97-21.13L444.63-21.13L444.63 0L439.32 0Z M450.80-26.33L456.45-26.33L456.45-21.13L460.06-21.13L460.06-16.99L456.45-16.99L456.45-6.45Q456.45-5.27 456.90-4.77Q457.35-4.26 458.61-4.26L458.61-4.26Q459.55-4.26 460.28-4.39L460.28-4.39L460.28-0.12Q458.61 0.39 456.86 0.39L456.86 0.39Q450.92 0.39 450.80-5.61L450.80-5.61L450.80-16.99L447.72-16.99L447.72-21.13L450.80-21.13L450.80-26.33Z M476.82 0L476.66-2.15Q474.57 0.39 470.88 0.39L470.88 0.39Q467.48 0.39 465.69-1.56Q463.91-3.52 463.87-7.29L463.87-7.29L463.87-21.13L469.51-21.13L469.51-7.48Q469.51-4.18 472.52-4.18L472.52-4.18Q475.39-4.18 476.47-6.17L476.47-6.17L476.47-21.13L482.13-21.13L482.13 0L476.82 0Z M499.14-21.27L499.06-15.84Q497.91-16.00 497.03-16.00L497.03-16.00Q493.83-16.00 492.83-13.83L492.83-13.83L492.83 0L487.19 0L487.19-21.13L492.52-21.13L492.68-18.61Q494.38-21.52 497.38-21.52L497.38-21.52Q498.32-21.52 499.14-21.27L499.14-21.27Z M511.93 0.39L511.93 0.39Q507.28 0.39 504.36-2.46Q501.44-5.31 501.44-10.06L501.44-10.06L501.44-10.61Q501.44-13.79 502.68-16.30Q503.91-18.81 506.16-20.17Q508.42-21.52 511.31-21.52L511.31-21.52Q515.64-21.52 518.13-18.79Q520.62-16.05 520.62-11.04L520.62-11.04L520.62-8.73L507.17-8.73Q507.44-6.66 508.82-5.41Q510.19-4.16 512.30-4.16L512.30-4.16Q515.57-4.16 517.40-6.52L517.40-6.52L520.18-3.42Q518.91-1.62 516.74-0.62Q514.57 0.39 511.93 0.39ZM511.29-16.95L511.29-16.95Q509.61-16.95 508.56-15.82Q507.52-14.69 507.23-12.58L507.23-12.58L515.08-12.58L515.08-13.03Q515.04-14.90 514.06-15.93Q513.09-16.95 511.29-16.95Z M551.62 0L546.29-10.41L541.62-10.41L541.62 0L535.76 0L535.76-28.44L546.33-28.44Q551.36-28.44 554.10-26.19Q556.83-23.95 556.83-19.84L556.83-19.84Q556.83-16.93 555.57-14.99Q554.31-13.05 551.76-11.89L551.76-11.89L557.91-0.27L557.91 0L551.62 0ZM541.62-23.69L541.62-15.16L546.35-15.16Q548.55-15.16 549.76-16.28Q550.97-17.40 550.97-19.38L550.97-19.38Q550.97-21.39 549.83-22.54Q548.69-23.69 546.33-23.69L546.33-23.69L541.62-23.69Z M571.44 0.39L571.44 0.39Q566.79 0.39 563.87-2.46Q560.95-5.31 560.95-10.06L560.95-10.06L560.95-10.61Q560.95-13.79 562.18-16.30Q563.41-18.81 565.67-20.17Q567.93-21.52 570.82-21.52L570.82-21.52Q575.15-21.52 577.64-18.79Q580.13-16.05 580.13-11.04L580.13-11.04L580.13-8.73L566.68-8.73Q566.95-6.66 568.33-5.41Q569.70-4.16 571.81-4.16L571.81-4.16Q575.08-4.16 576.91-6.52L576.91-6.52L579.68-3.42Q578.41-1.62 576.25-0.62Q574.08 0.39 571.44 0.39ZM570.80-16.95L570.80-16.95Q569.12-16.95 568.07-15.82Q567.03-14.69 566.74-12.58L566.74-12.58L574.59-12.58L574.59-13.03Q574.55-14.90 573.57-15.93Q572.59-16.95 570.80-16.95Z M587.87-21.13L591.79-6.89L595.72-21.13L601.62-21.13L594.49 0L589.10 0L581.97-21.13L587.87-21.13Z M614.37 0.39L614.37 0.39Q609.72 0.39 606.80-2.46Q603.88-5.31 603.88-10.06L603.88-10.06L603.88-10.61Q603.88-13.79 605.11-16.30Q606.34-18.81 608.60-20.17Q610.85-21.52 613.75-21.52L613.75-21.52Q618.08-21.52 620.57-18.79Q623.06-16.05 623.06-11.04L623.06-11.04L623.06-8.73L609.60-8.73Q609.88-6.66 611.26-5.41Q612.63-4.16 614.74-4.16L614.74-4.16Q618.00-4.16 619.84-6.52L619.84-6.52L622.61-3.42Q621.34-1.62 619.17-0.62Q617.01 0.39 614.37 0.39ZM613.73-16.95L613.73-16.95Q612.05-16.95 611.00-15.82Q609.96-14.69 609.66-12.58L609.66-12.58L617.51-12.58L617.51-13.03Q617.48-14.90 616.50-15.93Q615.52-16.95 613.73-16.95Z M645.01 0L639.31 0Q638.92-0.76 638.74-1.89L638.74-1.89Q636.69 0.39 633.41 0.39L633.41 0.39Q630.31 0.39 628.27-1.41Q626.22-3.20 626.22-5.94L626.22-5.94Q626.22-9.30 628.72-11.09Q631.21-12.89 635.91-12.91L635.91-12.91L638.51-12.91L638.51-14.12Q638.51-15.59 637.76-16.46Q637.01-17.34 635.39-17.34L635.39-17.34Q633.96-17.34 633.15-16.66Q632.34-15.98 632.34-14.79L632.34-14.79L626.69-14.79Q626.69-16.62 627.83-18.18Q628.96-19.75 631.03-20.63Q633.10-21.52 635.68-21.52L635.68-21.52Q639.58-21.52 641.88-19.56Q644.17-17.60 644.17-14.04L644.17-14.04L644.17-4.88Q644.19-1.88 645.01-0.33L645.01-0.33L645.01 0ZM634.64-3.93L634.64-3.93Q635.89-3.93 636.95-4.48Q638.00-5.04 638.51-5.98L638.51-5.98L638.51-9.61L636.40-9.61Q632.16-9.61 631.89-6.68L631.89-6.68L631.87-6.35Q631.87-5.29 632.61-4.61Q633.35-3.93 634.64-3.93Z M655.27-30L655.27 0L649.60 0L649.60-30L655.27-30Z M670.44 0.39L670.44 0.39Q665.79 0.39 662.87-2.46Q659.95-5.31 659.95-10.06L659.95-10.06L659.95-10.61Q659.95-13.79 661.18-16.30Q662.41-18.81 664.67-20.17Q666.93-21.52 669.82-21.52L669.82-21.52Q674.15-21.52 676.64-18.79Q679.13-16.05 679.13-11.04L679.13-11.04L679.13-8.73L665.68-8.73Q665.95-6.66 667.33-5.41Q668.70-4.16 670.81-4.16L670.81-4.16Q674.07-4.16 675.91-6.52L675.91-6.52L678.68-3.42Q677.41-1.62 675.25-0.62Q673.08 0.39 670.44 0.39ZM669.80-16.95L669.80-16.95Q668.12-16.95 667.07-15.82Q666.03-14.69 665.74-12.58L665.74-12.58L673.59-12.58L673.59-13.03Q673.55-14.90 672.57-15.93Q671.59-16.95 669.80-16.95Z M682.26-10.72L682.26-10.72Q682.26-15.66 684.47-18.59Q686.69-21.52 690.54-21.52L690.54-21.52Q693.62-21.52 695.64-19.22L695.64-19.22L695.64-30L701.30-30L701.30 0L696.20 0L695.93-2.25Q693.82 0.39 690.50 0.39L690.50 0.39Q686.77 0.39 684.51-2.55Q682.26-5.49 682.26-10.72ZM687.90-10.31L687.90-10.31Q687.90-7.34 688.94-5.76Q689.97-4.18 691.95-4.18L691.95-4.18Q694.56-4.18 695.64-6.39L695.64-6.39L695.64-14.73Q694.58-16.93 691.98-16.93L691.98-16.93Q687.90-16.93 687.90-10.31Z"/></g>
</svg>
</g><g opacity="1" transform="rotate(0 687.2698 637.9811)">
<svg width="359.4335" height="60" x="687.2698" y="637.9811" version="1.1" preserveAspectRatio="none" viewBox="1.8 -25.44 152.39999999999998 25.44">
  <g transform="matrix(1 0 0 1 0 0)" class="companyName"><path id="id-D6z1nYkh10" d="M1.80 0L1.80-25.44L12.28-25.44Q17.32-25.44 17.32-21.04L17.32-21.04L17.32-13.32Q17.32-8.88 12.28-8.88L12.28-8.88L7.48-8.88L7.48 0L1.80 0ZM11.60-14.08L11.60-14.08L11.60-20.24Q11.60-21.24 10.56-21.24L10.56-21.24L7.48-21.24L7.48-13.08L10.56-13.08Q11.60-13.08 11.60-14.08Z M26.52-25.44L26.52-4.20L33.84-4.20L33.84 0L20.84 0L20.84-25.44L26.52-25.44Z M41.40-25.44L41.40-25.44L46.76-25.44Q51.80-25.44 51.80-21.04L51.80-21.04L51.80-4.44Q51.80 0 46.76 0L46.76 0L41.40 0Q36.32 0 36.32-4.44L36.32-4.44L36.32-21.04Q36.32-25.44 41.40-25.44ZM46.08-5.20L46.08-5.20L46.08-20.24Q46.08-21.24 45.04-21.24L45.04-21.24L43.12-21.24Q42.04-21.24 42.04-20.24L42.04-20.24L42.04-5.20Q42.04-4.20 43.12-4.20L43.12-4.20L45.04-4.20Q46.08-4.20 46.08-5.20Z M54.44-25.44L69.48-25.44L69.48-21.24L64.80-21.24L64.80 0L59.08 0L59.08-21.24L54.44-21.24L54.44-25.44Z M80.36 0L80.36-25.44L86.04-25.44L86.04 0L80.36 0Z M101.20-10.24L101.20-25.44L106.44-25.44L106.44 0L101.32 0L95.76-15.24L95.76 0L90.56 0L90.56-25.44L95.72-25.44L101.20-10.24Z M123.68-25.44L123.68-25.44L129.04-25.44Q134.08-25.44 134.08-21.04L134.08-21.04L134.08-4.44Q134.08 0 129.04 0L129.04 0L123.68 0Q118.60 0 118.60-4.44L118.60-4.44L118.60-21.04Q118.60-25.44 123.68-25.44ZM128.36-5.20L128.36-5.20L128.36-20.24Q128.36-21.24 127.32-21.24L127.32-21.24L125.40-21.24Q124.32-21.24 124.32-20.24L124.32-20.24L124.32-5.20Q124.32-4.20 125.40-4.20L125.40-4.20L127.32-4.20Q128.36-4.20 128.36-5.20Z M148.96-10.24L148.96-25.44L154.20-25.44L154.20 0L149.08 0L143.52-15.24L143.52 0L138.32 0L138.32-25.44L143.48-25.44L148.96-10.24Z"/></g>
</svg>
</g></svg></svg>