<svg version="1.1" preserveAspectRatio="none" xmlns="http://www.w3.org/2000/svg" width="500" height="500" viewBox="0 0 500 500"><rect width="100%" height="100%" fill="#F9F9F9" fill-opacity="1"/><svg viewBox="127.2899 432.9832 420.9855 323.6383" width="333" height="255.9982562344784" x="83.5px" y="122.0009px" xmlns="http://www.w3.org/2000/svg" xmlns:xlink="http://www.w3.org/1999/xlink" preserveAspectRatio="none"><defs></defs><style>.companyName {fill:#F3A7DC;fill-opacity:1;}.icon1 {fill:#DBDBDB;fill-opacity:1;}.icon2 {fill:#F3A7DC;fill-opacity:1;}.icon3 {fill:#E7E7E7;fill-opacity:1;}.icon3-str {stroke:#E7E7E7;stroke-opacity:1;}.text {fill:#A0A0A0;fill-opacity:1;}</style><g opacity="1" transform="rotate(0 127.2899 728.6215)">
<svg width="420.9855" height="28" x="127.2899" y="728.6215" version="1.1" preserveAspectRatio="none" viewBox="4.16 -29.8 567.6800000000001 37.760000000000005">
  <g transform="matrix(1 0 0 1 0 0)" class="text"><path id="id-6izo4zJp23" d="M4.16-28.92L22.96-28.92L22.96-25.20L8.04-25.20L8.04-16.40L21.36-16.40L21.36-12.68L8.04-12.68L8.04-3.76L23.52-3.76L23.52 0L4.16 0L4.16-28.92Z M54.60-17.24Q57-17.24 58.42-15.88Q59.84-14.52 59.92-12.28L59.92-12.28L59.92 0L56.20 0L56.20-10.92Q56.08-13.84 53.56-14L53.56-14Q52.12-14 50.98-13.14Q49.84-12.28 49.20-10.88Q48.56-9.48 48.52-7.88L48.52-7.88L48.52 0L44.76 0L44.76-10.92Q44.64-13.84 42.04-14L42.04-14Q40.64-14 39.50-13.14Q38.36-12.28 37.72-10.86Q37.08-9.44 37.08-7.84L37.08-7.84L37.08 0L33.36 0L33.36-16.56L36.72-16.56L37-13.44Q37.96-15.24 39.62-16.24Q41.28-17.24 43.40-17.24L43.40-17.24Q45.40-17.24 46.76-16.30Q48.12-15.36 48.52-13.72L48.52-13.72Q49.56-15.36 51.16-16.30Q52.76-17.24 54.60-17.24L54.60-17.24Z M80.84-17.24Q83.16-17.24 85.04-16.12Q86.92-15 88-12.98Q89.08-10.96 89.08-8.32L89.08-8.32Q89.08-5.72 87.92-3.74Q86.76-1.76 84.72-0.68Q82.68 0.40 80.16 0.40L80.16 0.40Q78.36 0.40 76.72-0.38Q75.08-1.16 74.08-2.48L74.08-2.48L74.08 7.96L70.36 7.96L70.36-16.84L73.60-16.84L73.92-14.04Q75.20-15.48 76.98-16.36Q78.76-17.24 80.84-17.24L80.84-17.24ZM79.44-2.60Q81-2.60 82.34-3.34Q83.68-4.08 84.48-5.38Q85.28-6.68 85.28-8.28L85.28-8.28Q85.28-9.92 84.54-11.24Q83.80-12.56 82.52-13.32Q81.24-14.08 79.68-14.08L79.68-14.08Q77.56-14.08 76.06-12.90Q74.56-11.72 74.08-9.72L74.08-9.72L74.08-6.96Q74.40-5.04 75.90-3.82Q77.40-2.60 79.44-2.60L79.44-2.60Z M96.64-8.44Q96.64-10.88 97.82-12.90Q99-14.92 101.10-16.08Q103.20-17.24 105.84-17.24L105.84-17.24Q108.48-17.24 110.54-16.08Q112.60-14.92 113.74-12.92Q114.88-10.92 114.88-8.44L114.88-8.44Q114.88-5.96 113.74-3.94Q112.60-1.92 110.52-0.76Q108.44 0.40 105.76 0.40L105.76 0.40Q103.16 0.40 101.08-0.70Q99-1.80 97.82-3.80Q96.64-5.80 96.64-8.44L96.64-8.44ZM100.40-8.40Q100.40-6.84 101.10-5.52Q101.80-4.20 103.02-3.44Q104.24-2.68 105.72-2.68L105.72-2.68Q108.04-2.68 109.56-4.32Q111.08-5.96 111.08-8.40L111.08-8.40Q111.08-10.84 109.56-12.50Q108.04-14.16 105.72-14.16L105.72-14.16Q104.20-14.16 103-13.38Q101.80-12.60 101.10-11.28Q100.40-9.96 100.40-8.40L100.40-8.40Z M142.68-16.56L146.36-16.56L138.72 1L133.40-10.36L128.56 1L120.88-16.56L124.56-16.56L129-6.52L132.08-13.72L130.76-16.56L134-16.56L138.48-6.28L142.68-16.56Z M161.72-2.80Q163.80-2.80 165.76-4.24L165.76-4.24L167.48-1.48Q166.16-0.60 164.62-0.10Q163.08 0.40 161.64 0.40L161.64 0.40Q158.88 0.40 156.82-0.74Q154.76-1.88 153.64-3.88Q152.52-5.88 152.52-8.40L152.52-8.40Q152.52-10.84 153.74-12.86Q154.96-14.88 157.08-16.06Q159.20-17.24 161.72-17.24L161.72-17.24Q164.96-17.24 167.14-15.34Q169.32-13.44 170.12-10.04L170.12-10.04L157-5.44Q157.72-4.20 158.94-3.50Q160.16-2.80 161.72-2.80L161.72-2.80ZM161.44-14.28Q159.16-14.28 157.68-12.68Q156.20-11.08 156.20-8.60L156.20-8.60Q156.20-8 156.24-7.68L156.24-7.68L165.88-11.24Q165.28-12.60 164.18-13.44Q163.08-14.28 161.44-14.28L161.44-14.28Z M182.36-12.64Q183-14 184.18-15.04Q185.36-16.08 186.68-16.64Q188-17.20 189-17.24L189-17.24L188.84-13.52Q187.04-13.60 185.58-12.80Q184.12-12 183.30-10.58Q182.48-9.16 182.48-7.56L182.48-7.56L182.48 0L178.76 0L178.76-16.56L182.08-16.56L182.36-12.64Z M233-28.92L237.76-28.92L226.92-9.64L226.92 0L223.04 0L223.04-9.64L212.32-28.92L217.12-28.92L225.08-14.04L233-28.92Z M240.40-8.44Q240.40-10.88 241.58-12.90Q242.76-14.92 244.86-16.08Q246.96-17.24 249.60-17.24L249.60-17.24Q252.24-17.24 254.30-16.08Q256.36-14.92 257.50-12.92Q258.64-10.92 258.64-8.44L258.64-8.44Q258.64-5.96 257.50-3.94Q256.36-1.92 254.28-0.76Q252.20 0.40 249.52 0.40L249.52 0.40Q246.92 0.40 244.84-0.70Q242.76-1.80 241.58-3.80Q240.40-5.80 240.40-8.44L240.40-8.44ZM244.16-8.40Q244.16-6.84 244.86-5.52Q245.56-4.20 246.78-3.44Q248-2.68 249.48-2.68L249.48-2.68Q251.80-2.68 253.32-4.32Q254.84-5.96 254.84-8.40L254.84-8.40Q254.84-10.84 253.32-12.50Q251.80-14.16 249.48-14.16L249.48-14.16Q247.96-14.16 246.76-13.38Q245.56-12.60 244.86-11.28Q244.16-9.96 244.16-8.40L244.16-8.40Z M279.32-16.56L283.04-16.56L283.04 0L279.68 0L279.44-3.16Q278.60-1.48 276.84-0.42Q275.08 0.64 272.92 0.64L272.92 0.64Q270.64 0.64 269.18-0.74Q267.72-2.12 267.64-4.32L267.64-4.32L267.64-16.56L271.36-16.56L271.36-5.64Q271.44-4.24 272.18-3.42Q272.92-2.60 274.40-2.56L274.40-2.56Q275.76-2.56 276.88-3.38Q278-4.20 278.66-5.64Q279.32-7.08 279.32-8.84L279.32-8.84L279.32-16.56Z M297.12-12.64Q297.76-14 298.94-15.04Q300.12-16.08 301.44-16.64Q302.76-17.20 303.76-17.24L303.76-17.24L303.60-13.52Q301.80-13.60 300.34-12.80Q298.88-12 298.06-10.58Q297.24-9.16 297.24-7.56L297.24-7.56L297.24 0L293.52 0L293.52-16.56L296.84-16.56L297.12-12.64Z M330.12-28.92L347.28-28.92L347.28-25.20L334-25.20L334-16L345.64-16L345.64-12.28L334-12.28L334 0L330.12 0L330.12-28.92Z M367.80-16.56L371.52-16.56L371.52 0L368.16 0L367.92-3.16Q367.08-1.48 365.32-0.42Q363.56 0.64 361.40 0.64L361.40 0.64Q359.12 0.64 357.66-0.74Q356.20-2.12 356.12-4.32L356.12-4.32L356.12-16.56L359.84-16.56L359.84-5.64Q359.92-4.24 360.66-3.42Q361.40-2.60 362.88-2.56L362.88-2.56Q364.24-2.56 365.36-3.38Q366.48-4.20 367.14-5.64Q367.80-7.08 367.80-8.84L367.80-8.84L367.80-16.56Z M383.60-23.84L387.36-23.84L387.36-16.52L391.88-16.52L391.88-13.56L387.36-13.56L387.36 0L383.60 0L383.60-13.56L380.56-13.56L380.56-16.52L383.60-16.52L383.60-23.84Z M412.08-16.56L415.80-16.56L415.80 0L412.44 0L412.20-3.16Q411.36-1.48 409.60-0.42Q407.84 0.64 405.68 0.64L405.68 0.64Q403.40 0.64 401.94-0.74Q400.48-2.12 400.40-4.32L400.40-4.32L400.40-16.56L404.12-16.56L404.12-5.64Q404.20-4.24 404.94-3.42Q405.68-2.60 407.16-2.56L407.16-2.56Q408.52-2.56 409.64-3.38Q410.76-4.20 411.42-5.64Q412.08-7.08 412.08-8.84L412.08-8.84L412.08-16.56Z M429.88-12.64Q430.52-14 431.70-15.04Q432.88-16.08 434.20-16.64Q435.52-17.20 436.52-17.24L436.52-17.24L436.36-13.52Q434.56-13.60 433.10-12.80Q431.64-12 430.82-10.58Q430.00-9.16 430.00-7.56L430.00-7.56L430.00 0L426.28 0L426.28-16.56L429.60-16.56L429.88-12.64Z M452.36-2.80Q454.44-2.80 456.40-4.24L456.40-4.24L458.12-1.48Q456.80-0.60 455.26-0.10Q453.72 0.40 452.28 0.40L452.28 0.40Q449.52 0.40 447.46-0.74Q445.40-1.88 444.28-3.88Q443.16-5.88 443.16-8.40L443.16-8.40Q443.16-10.84 444.38-12.86Q445.60-14.88 447.72-16.06Q449.84-17.24 452.36-17.24L452.36-17.24Q455.60-17.24 457.78-15.34Q459.96-13.44 460.76-10.04L460.76-10.04L447.64-5.44Q448.36-4.20 449.58-3.50Q450.80-2.80 452.36-2.80L452.36-2.80ZM452.08-14.28Q449.80-14.28 448.32-12.68Q446.84-11.08 446.84-8.60L446.84-8.60Q446.84-8 446.88-7.68L446.88-7.68L456.52-11.24Q455.92-12.60 454.82-13.44Q453.72-14.28 452.08-14.28L452.08-14.28Z M508.28-28.92L512.16-28.92L512.16 0.96L512.04 0.96L490.80-20.60L490.88 0L486.96 0L486.96-29.80L487.16-29.80L508.36-8L508.28-28.92Z M522.12-8.44Q522.12-10.88 523.30-12.90Q524.48-14.92 526.58-16.08Q528.68-17.24 531.32-17.24L531.32-17.24Q533.96-17.24 536.02-16.08Q538.08-14.92 539.22-12.92Q540.36-10.92 540.36-8.44L540.36-8.44Q540.36-5.96 539.22-3.94Q538.08-1.92 536.00-0.76Q533.92 0.40 531.24 0.40L531.24 0.40Q528.64 0.40 526.56-0.70Q524.48-1.80 523.30-3.80Q522.12-5.80 522.12-8.44L522.12-8.44ZM525.88-8.40Q525.88-6.84 526.58-5.52Q527.28-4.20 528.50-3.44Q529.72-2.68 531.20-2.68L531.20-2.68Q533.52-2.68 535.04-4.32Q536.56-5.96 536.56-8.40L536.56-8.40Q536.56-10.84 535.04-12.50Q533.52-14.16 531.20-14.16L531.20-14.16Q529.68-14.16 528.48-13.38Q527.28-12.60 526.58-11.28Q525.88-9.96 525.88-8.40L525.88-8.40Z M568.16-16.56L571.84-16.56L564.20 1L558.88-10.36L554.04 1L546.36-16.56L550.04-16.56L554.48-6.52L557.56-13.72L556.24-16.56L559.48-16.56L563.96-6.28L568.16-16.56Z"/></g>
</svg>
</g><g opacity="1" transform="rotate(0 144.1731 610.6215)">
<svg width="387.2191" height="100" x="144.1731" y="610.6215" version="1.1" preserveAspectRatio="none" viewBox="1.04 -29.2 150.24 38.8">
  <g transform="matrix(1 0 0 1 0 0)" class="companyName"><path id="id-D6z1nYkh7" d="M18.56-2Q18.56-1.56 18.74-1.40Q18.92-1.24 19.52-1.12L19.52-1.12L21-0.80L21 0L7.96 0L7.96-0.80L9.44-1.12Q10.04-1.24 10.22-1.40Q10.40-1.56 10.40-2L10.40-2L10.40-26.88L9.48-26.88Q7.04-26.88 5.70-26.08Q4.36-25.28 3.66-24Q2.96-22.72 1.92-19.92L1.92-19.92L1.04-19.92L1.04-28L27.92-28L27.92-19.92L27.04-19.92Q26-22.72 25.30-24Q24.60-25.28 23.26-26.08Q21.92-26.88 19.48-26.88L19.48-26.88L18.56-26.88L18.56-2Z M39.20-10.24Q39.24-5.80 40.62-3.48Q42-1.16 45.80-1.16L45.80-1.16Q47.68-1.16 49.14-1.72Q50.60-2.28 52.16-3.32L52.16-3.32L52.68-2.56Q48.96 0.48 42.84 0.48L42.84 0.48Q37.32 0.48 34.14-2.18Q30.96-4.84 30.96-9.96L30.96-9.96Q30.96-14.80 34.20-17.36Q37.44-19.92 43.28-19.92L43.28-19.92Q46.60-19.92 48.88-18.88Q51.16-17.84 52.26-16.10Q53.36-14.36 53.36-12.24L53.36-12.24Q53.36-11.16 53.16-10.24L53.16-10.24L39.20-10.24ZM43.04-18.96Q40.84-18.96 40.04-17.12Q39.24-15.28 39.20-11.28L39.20-11.28L45.92-11.28L45.92-14.28Q45.92-16.72 45.34-17.84Q44.76-18.96 43.04-18.96L43.04-18.96Z M66-0.48Q67.88-0.48 68.78-1.04Q69.68-1.60 69.68-3L69.68-3Q69.68-3.96 69.20-4.56Q68.72-5.16 67.68-5.64Q66.64-6.12 64.36-6.96L64.36-6.96Q60.48-8.36 58.84-9.86Q57.20-11.36 57.20-14L57.20-14Q57.20-17 59.44-18.46Q61.68-19.92 66.24-19.92L66.24-19.92Q68.56-19.92 70.80-19.46Q73.04-19 74.28-18.40L74.28-18.40L73.80-13.60L73.12-13.60Q72.04-16.28 70.52-17.66Q69-19.04 66.12-19.04L66.12-19.04Q64.28-19.04 63.28-18.54Q62.28-18.04 62.28-16.72L62.28-16.72Q62.28-15.80 62.74-15.24Q63.20-14.68 64.18-14.20Q65.16-13.72 67.44-12.80L67.44-12.80Q70.72-11.48 72.40-10.52Q74.08-9.56 74.88-8.32Q75.68-7.08 75.68-5.20L75.68-5.20Q75.68-2.20 73.38-0.86Q71.08 0.48 66.48 0.48L66.48 0.48Q64.04 0.48 61.38 0.02Q58.72-0.44 57.40-1.04L57.40-1.04L57.96-6.48L58.64-6.48Q59.36-3.32 61.20-1.90Q63.04-0.48 66-0.48L66-0.48Z M81.00-18.40L78.40-18.40L78.40-19.44Q79.64-19.44 80.24-19.64Q80.84-19.84 81.44-20.36L81.44-20.36L88.56-26.76L88.92-26.76L88.92-19.44L94.08-19.44L94.08-18.40L88.92-18.40L88.92-4.96Q88.92-3.04 89.38-2.26Q89.84-1.48 90.96-1.48L90.96-1.48Q91.84-1.48 92.52-1.84Q93.20-2.20 94.00-3.08L94.00-3.08L94.64-2.32Q92.12 0.48 87.20 0.48L87.20 0.48Q83.88 0.48 82.44-0.92Q81.00-2.32 81.00-5.28L81.00-5.28L81.00-18.40Z M102.76-22.48Q100.88-22.48 99.76-23.34Q98.64-24.20 98.64-25.84L98.64-25.84Q98.64-27.48 99.76-28.34Q100.88-29.20 102.76-29.20L102.76-29.20Q104.64-29.20 105.76-28.34Q106.88-27.48 106.88-25.84L106.88-25.84Q106.88-24.20 105.76-23.34Q104.64-22.48 102.76-22.48L102.76-22.48ZM96.40 0L96.40-0.72L97.80-1.04Q98.40-1.16 98.58-1.32Q98.76-1.48 98.76-1.92L98.76-1.92L98.76-17.04Q98.76-17.48 98.58-17.64Q98.40-17.80 97.80-17.92L97.80-17.92L96.40-18.24L96.40-18.96L106.00-20.16L106.76-20.16L106.76-1.92Q106.76-1.48 106.94-1.32Q107.12-1.16 107.72-1.04L107.72-1.04L109.12-0.72L109.12 0L96.40 0Z M110.96-19.44L113.56-19.44L113.56-22.64Q113.56-25.96 115.60-27.58Q117.64-29.20 122.36-29.20L122.36-29.20Q126.24-29.20 128.72-28L128.72-28L128.24-22.76L127.40-22.76Q126.60-25.04 126.12-26.06Q125.64-27.08 124.86-27.66Q124.08-28.24 122.72-28.24L122.72-28.24Q121.52-28.24 120.96-27.76Q120.40-27.28 120.40-26.28L120.40-26.28Q120.40-25.40 120.56-24.70Q120.72-24 121.00-23.08L121.00-23.08Q121.20-22.48 121.34-21.86Q121.48-21.24 121.48-20.60L121.48-20.60L121.48-19.44L126.32-19.44L126.32-18.40L121.48-18.40L121.48-1.96Q121.48-1.52 121.66-1.36Q121.84-1.20 122.44-1.08L122.44-1.08L123.92-0.72L123.92 0L111.20 0L111.20-0.72L112.60-1.04Q113.20-1.16 113.38-1.32Q113.56-1.48 113.56-1.92L113.56-1.92L113.56-18.40L110.96-18.40L110.96-19.44Z M140.88-18.84L139.84-18.60Q138.92-18.40 138.92-17.84L138.92-17.84Q138.92-17.60 139.12-17.20L139.12-17.20L143.76-7.88L148.12-18.04Q148.24-18.28 148.24-18.44L148.24-18.44Q148.24-18.68 147.72-18.72L147.72-18.72L146.68-18.84L146.68-19.44L151.28-19.44L151.28-18.84L150.24-18.68Q149.76-18.60 149.56-18.48Q149.36-18.36 149.16-17.92L149.16-17.92L141.36 0Q139.76 3.72 138.74 5.46Q137.72 7.20 136.46 8.14Q135.20 9.08 133.08 9.60L133.08 9.60L130.92 3.52Q133.64 3.40 136.08 2.62Q138.52 1.84 140.28 0.64L140.28 0.64L130.64-17.76Q130.44-18.12 130.18-18.28Q129.92-18.44 129.52-18.52L129.52-18.52L128.32-18.84L128.32-19.44L140.88-19.44L140.88-18.84Z"/></g>
</svg>
</g><g opacity="1" transform="rotate(0 240.9779 432.9832)">
<svg width="193.6096" height="147.6383" x="240.9779" y="432.9832" version="1.1" preserveAspectRatio="none" viewBox="13.09999942779541 30.70000457763672 175.1999969482422 133.60000610351562">
  <g transform="matrix(1 0 0 1 0 0)" class="icon1"><g><g><g><path d="M96.4,156.7c0,1.8-1.4,3.3-3.1,3.4l-56.3-10.8h-0.4c-1.9,0-3.5-1.6-3.5-3.5V49.4V34.2c0-1.8,1.4-3.3,3.1-3.4l56.3,10.8     h0.4c1.9,0,3.5,1.6,3.5,3.5v4.4V156.7z"></path><path d="M168.3,145.9c0,1.9-1.5,3.5-3.5,3.5h-0.4l-56.3,10.8c-1.8-0.2-3.1-1.6-3.1-3.4V49.4V45c0-1.9,1.5-3.5,3.5-3.5h0.4     l24.5-4.7c0,4.2,0,8.4,0,12.6c0,8.1,0,16.1,0,24.2c0,1.1,1.5,1.8,2.3,1c3.2-3.4,6.4-6.8,9.6-10.2c3.2,3.4,6.3,6.7,9.4,10     c0,0.1,0.1,0.1,0.1,0.2c0,0,0,0,0,0s0,0,0,0c0.4,0.4,1,0.4,1.4,0.2h0c0.5-0.2,0.9-0.6,0.9-1.2c0-8.1,0-16.1,0-24.2     c0-5.7,0-11.4,0-17.2l8-1.5c1.8,0.2,3.1,1.7,3.1,3.4v15.2V145.9z"></path><path d="M188.3,57.2v99.3c0,4.3-3.5,7.8-7.8,7.8h-47.8l32.6-6.2c6.5-0.2,11.7-5.6,11.7-12.1V49.4h3.5     C184.8,49.4,188.3,52.9,188.3,57.2z"></path><path d="M68.6,164.3H20.9c-4.3,0-7.8-3.5-7.8-7.8V57.2c0-4.3,3.5-7.8,7.8-7.8h3.5v96.5c0,6.5,5.2,11.9,11.6,12.1L68.6,164.3z"></path></g></g></g></g>
</svg>
</g></svg></svg>